<?xml version="1.0" encoding="UTF-8"?>
<svg xmlns="http://www.w3.org/2000/svg" xmlns:xlink="http://www.w3.org/1999/xlink" width="33px" height="60px" viewBox="0 0 33 59" version="1.1">
<g id="surface1">
<path style=" stroke:none;fill-rule:nonzero;fill:rgb(20.784314%,18.039216%,12.156863%);fill-opacity:1;" d="M 11.574219 1.441406 L 11.691406 1.5 L 11.984375 1.785156 L 12.390625 2.101562 L 13.003906 2.507812 L 13.761719 2.9375 L 14.429688 3.3125 L 15.074219 3.6875 L 15.566406 4.03125 L 15.859375 4.265625 L 16.238281 4.636719 L 16.644531 5.242188 L 16.90625 5.703125 L 17.140625 6.222656 L 17.402344 6.941406 L 17.636719 7.75 L 17.753906 8.210938 L 17.898438 9.277344 L 18.015625 9.851562 L 18.042969 10.285156 L 18.042969 12.761719 L 18.015625 13.484375 L 17.925781 14.261719 L 17.871094 14.605469 L 17.78125 16.25 L 17.78125 16.710938 L 17.957031 16.59375 L 18.074219 16.390625 L 18.304688 15.929688 L 18.511719 15.554688 L 18.890625 14.953125 L 19.269531 14.460938 L 19.472656 14.203125 L 19.734375 13.914062 L 20.289062 13.367188 L 20.609375 13.109375 L 21.015625 12.820312 L 21.628906 12.472656 L 22.210938 12.214844 L 22.765625 12.042969 L 23.289062 11.898438 L 24.394531 11.726562 L 25.589844 11.582031 L 26.261719 11.464844 L 27.046875 11.351562 L 27.71875 11.148438 L 28.300781 10.945312 L 28.535156 10.804688 L 28.679688 10.746094 L 28.707031 10.832031 L 28.535156 11.179688 L 28.445312 11.496094 L 28.359375 11.925781 L 28.097656 12.789062 L 27.804688 13.625 L 27.484375 14.375 L 27.164062 15.039062 L 26.785156 15.699219 L 26.347656 16.390625 L 26.058594 16.765625 L 25.792969 17.082031 L 25.472656 17.457031 L 25.210938 17.746094 L 24.804688 18.09375 L 24.453125 18.351562 L 24.074219 18.609375 L 23.550781 18.898438 L 23.054688 19.128906 L 22.355469 19.359375 L 21.746094 19.503906 L 21.394531 19.589844 L 21.074219 19.617188 L 19.878906 19.617188 L 19.5 19.5625 L 18.890625 19.359375 L 18.859375 19.273438 L 19.121094 18.839844 L 19.355469 18.496094 L 19.761719 17.917969 L 20.140625 17.429688 L 20.433594 17.054688 L 20.871094 16.59375 L 21.773438 15.699219 L 22.09375 15.441406 L 22.472656 15.152344 L 22.96875 14.808594 L 23.433594 14.519531 L 24.164062 14.117188 L 24.714844 13.828125 L 24.25 13.886719 L 23.550781 14.085938 L 22.824219 14.375 L 22.09375 14.722656 L 21.597656 15.007812 L 21.277344 15.210938 L 20.8125 15.554688 L 20.347656 15.929688 L 19.96875 16.304688 L 19.734375 16.507812 L 19.441406 16.824219 L 19.121094 17.226562 L 18.832031 17.601562 L 18.539062 18.035156 L 18.25 18.582031 L 17.957031 19.359375 L 17.871094 19.53125 L 17.8125 19.878906 L 17.78125 20.28125 L 17.78125 21.492188 L 17.839844 22.183594 L 17.925781 22.527344 L 18.074219 22.730469 L 21.976562 22.757812 L 22.238281 22.816406 L 22.472656 22.988281 L 22.707031 23.304688 L 22.792969 23.535156 L 22.765625 23.765625 L 22.558594 24.113281 L 22.386719 24.3125 L 22.125 24.429688 L 21.949219 24.457031 L 21.191406 24.488281 L 21.160156 26.042969 L 21.160156 29.816406 L 21.191406 30.421875 L 21.277344 30.765625 L 21.597656 31.371094 L 22.355469 32.582031 L 22.589844 32.957031 L 22.9375 33.503906 L 23.375 34.195312 L 23.785156 34.859375 L 24.132812 35.40625 L 24.601562 36.15625 L 25.035156 36.847656 L 25.503906 37.59375 L 26.261719 38.804688 L 26.726562 39.554688 L 27.078125 40.101562 L 27.367188 40.5625 L 27.777344 41.195312 L 28.125 41.773438 L 28.359375 42.234375 L 28.5625 42.78125 L 28.648438 43.125 L 28.679688 43.328125 L 28.679688 44.019531 L 28.589844 44.480469 L 28.359375 45.113281 L 28.125 45.574219 L 27.835938 46.007812 L 27.511719 46.382812 L 27.132812 46.699219 L 26.582031 47.015625 L 25.851562 47.304688 L 25.359375 47.390625 L 24.980469 47.417969 L 10.644531 47.417969 L 8.75 47.390625 L 8.167969 47.332031 L 7.789062 47.21875 L 7.320312 47.015625 L 6.914062 46.785156 L 6.59375 46.527344 L 6.332031 46.296875 L 6.070312 45.976562 L 5.863281 45.691406 L 5.574219 45.144531 L 5.371094 44.539062 L 5.28125 44.105469 L 5.253906 43.617188 L 5.339844 43.011719 L 5.515625 42.40625 L 5.777344 41.859375 L 6.128906 41.3125 L 6.359375 40.9375 L 6.769531 40.304688 L 7.117188 39.726562 L 7.46875 39.179688 L 7.816406 38.601562 L 8.515625 37.507812 L 8.925781 36.847656 L 9.332031 36.210938 L 9.652344 35.695312 L 10.089844 35.03125 L 10.441406 34.453125 L 10.761719 33.964844 L 11.253906 33.160156 L 11.460938 32.84375 L 12.1875 31.6875 L 12.597656 31 L 12.710938 30.625 L 12.769531 30.304688 L 12.800781 29.988281 L 12.800781 24.488281 L 12.042969 24.488281 L 11.78125 24.402344 L 11.546875 24.226562 L 11.34375 24.027344 L 11.226562 23.765625 L 11.226562 23.480469 L 11.34375 23.164062 L 11.574219 22.902344 L 11.808594 22.789062 L 12.011719 22.757812 L 16.414062 22.730469 L 16.296875 21.289062 L 16.238281 20.914062 L 16.09375 20.539062 L 15.886719 19.9375 L 15.566406 19.300781 L 15.246094 18.8125 L 14.984375 18.464844 L 14.546875 18.003906 L 14.050781 17.542969 L 13.617188 17.199219 L 13.265625 16.96875 L 12.710938 16.621094 L 11.925781 16.21875 L 11.167969 15.929688 L 10.644531 15.757812 L 10.234375 15.671875 L 9.535156 15.554688 L 9.945312 15.757812 L 10.613281 16.074219 L 11.167969 16.363281 L 11.546875 16.59375 L 11.984375 16.882812 L 12.507812 17.257812 L 12.945312 17.632812 L 13.238281 17.917969 L 13.46875 18.121094 L 14.023438 18.667969 L 14.226562 18.898438 L 14.488281 19.1875 L 14.75 19.503906 L 15.101562 19.992188 L 15.074219 20.109375 L 14.75 20.222656 L 13.964844 20.398438 L 13.527344 20.453125 L 12.539062 20.453125 L 12.128906 20.398438 L 11.488281 20.222656 L 10.875 19.992188 L 10.292969 19.703125 L 9.683594 19.300781 L 9.417969 19.101562 L 9.097656 18.839844 L 8.488281 18.234375 L 8.167969 17.832031 L 7.757812 17.285156 L 7.496094 16.882812 L 7.207031 16.390625 L 6.738281 15.5 L 6.390625 14.722656 L 6.214844 14.289062 L 5.980469 13.597656 L 5.894531 13.367188 L 5.894531 13.222656 L 6.070312 13.25 L 6.449219 13.394531 L 7.175781 13.539062 L 8.109375 13.625 L 9.59375 13.710938 L 10.820312 13.855469 L 11.429688 13.945312 L 12.011719 14.117188 L 12.539062 14.347656 L 12.972656 14.578125 L 13.527344 14.953125 L 13.90625 15.269531 L 14.285156 15.613281 L 14.546875 15.902344 L 14.867188 16.304688 L 15.074219 16.59375 L 15.363281 17.027344 L 15.742188 17.6875 L 15.945312 18.121094 L 16.0625 18.496094 L 16.265625 18.695312 L 16.355469 18.726562 L 16.382812 17.917969 L 16.5 17.140625 L 16.558594 16.449219 L 16.675781 16.015625 L 16.761719 15.125 L 16.792969 14.546875 L 16.90625 14.289062 L 17.023438 13.25 L 17.082031 12.589844 L 17.140625 11.609375 L 17.140625 11.035156 L 17.054688 9.851562 L 16.9375 9.191406 L 16.675781 8.296875 L 16.382812 7.632812 L 16.0625 7.058594 L 15.714844 6.570312 L 15.480469 6.28125 L 15.160156 5.933594 L 14.722656 5.503906 L 14.316406 5.1875 L 13.820312 4.8125 L 13.527344 4.667969 L 13.441406 4.636719 L 13.617188 4.867188 L 13.9375 5.214844 L 14.167969 5.445312 L 14.371094 5.675781 L 14.664062 6.019531 L 15.042969 6.539062 L 15.421875 7.117188 L 15.566406 7.347656 L 15.800781 7.808594 L 16.0625 8.382812 L 16.296875 9.015625 L 16.527344 9.851562 L 16.617188 10.199219 L 16.617188 10.34375 L 16.441406 10.398438 L 15.917969 10.371094 L 15.160156 10.226562 L 14.722656 10.082031 L 14.109375 9.765625 L 13.671875 9.476562 L 13.382812 9.246094 L 13.03125 8.929688 L 12.683594 8.554688 L 12.363281 8.09375 L 12.101562 7.632812 L 11.839844 7.03125 L 11.664062 6.511719 L 11.402344 5.214844 L 11.34375 4.898438 L 11.3125 4.550781 L 11.3125 3.140625 L 11.34375 2.476562 L 11.429688 2.046875 L 11.488281 1.871094 L 11.546875 1.46875 Z M 11.574219 1.441406 "/>
<path style=" stroke:none;fill-rule:nonzero;fill:rgb(47.843137%,28.627452%,0.784314%);fill-opacity:1;" d="M 11.953125 35.347656 L 22.09375 35.347656 L 22.328125 35.75 L 22.675781 36.296875 L 23.085938 36.960938 L 23.582031 37.769531 L 23.957031 38.375 L 24.394531 39.0625 L 24.804688 39.699219 L 25.242188 40.359375 L 25.359375 40.535156 L 25.359375 40.589844 L 25.472656 40.648438 L 25.792969 41.140625 L 26.058594 41.601562 L 26.40625 42.203125 L 26.757812 42.867188 L 26.871094 43.210938 L 26.902344 43.386719 L 26.902344 43.933594 L 26.8125 44.335938 L 26.667969 44.683594 L 26.433594 45.054688 L 26.113281 45.375 L 25.648438 45.605469 L 25.242188 45.691406 L 24.890625 45.71875 L 23.523438 45.75 L 21.074219 45.777344 L 13.964844 45.777344 L 10.644531 45.75 L 9.332031 45.71875 L 8.777344 45.691406 L 8.3125 45.605469 L 7.964844 45.460938 L 7.585938 45.171875 L 7.292969 44.828125 L 7.117188 44.507812 L 6.972656 44.078125 L 6.972656 43.5 L 7.148438 43.039062 L 7.410156 42.492188 L 7.992188 41.511719 L 8.371094 40.90625 L 8.605469 40.5625 L 8.664062 40.5625 L 8.71875 40.417969 L 9.15625 39.757812 L 9.449219 39.265625 L 9.855469 38.632812 L 10.585938 37.480469 L 11.050781 36.730469 L 11.429688 36.097656 L 11.722656 35.664062 L 11.925781 35.375 Z M 11.953125 35.347656 "/>
<path style=" stroke:none;fill-rule:nonzero;fill:rgb(83.529413%,41.176471%,0.784314%);fill-opacity:1;" d="M 11.953125 35.347656 L 22.09375 35.347656 L 22.328125 35.75 L 22.675781 36.296875 L 23.085938 36.960938 L 23.582031 37.769531 L 23.957031 38.375 L 24.394531 39.0625 L 24.804688 39.699219 L 25.242188 40.359375 L 25.414062 40.648438 L 25.414062 40.679688 L 25.269531 40.707031 L 21.746094 40.734375 L 11.691406 40.734375 L 8.605469 40.679688 L 8.664062 40.503906 L 9.15625 39.757812 L 9.449219 39.265625 L 9.855469 38.632812 L 10.585938 37.480469 L 11.050781 36.730469 L 11.429688 36.097656 L 11.722656 35.664062 L 11.925781 35.375 Z M 11.953125 35.347656 "/>
<path style=" stroke:none;fill-rule:nonzero;fill:rgb(0%,18.039216%,74.117649%);fill-opacity:1;" d="M 14.519531 29.933594 L 19.441406 29.933594 L 19.558594 30.191406 L 19.617188 30.625 L 19.761719 31.171875 L 20.027344 31.890625 L 20.402344 32.582031 L 20.578125 32.84375 L 20.839844 33.273438 L 21.074219 33.648438 L 21.511719 34.339844 L 21.890625 34.859375 L 22.066406 35.117188 L 22.09375 35.320312 L 21.949219 35.347656 L 20.929688 35.375 L 12.769531 35.375 L 11.925781 35.347656 L 11.953125 35.203125 L 12.128906 34.859375 L 12.390625 34.425781 L 12.683594 33.90625 L 13.148438 33.128906 L 13.441406 32.667969 L 13.820312 32.007812 L 14.167969 31.285156 L 14.34375 30.765625 L 14.429688 30.363281 Z M 14.519531 29.933594 "/>
<path style=" stroke:none;fill-rule:nonzero;fill:rgb(21.176471%,18.039216%,12.156863%);fill-opacity:1;" d="M 12.304688 49.492188 L 14.605469 49.492188 L 15.363281 49.550781 L 16.003906 49.695312 L 16.355469 49.867188 L 16.644531 50.125 L 16.851562 50.386719 L 16.996094 50.730469 L 17.054688 50.933594 L 17.082031 51.191406 L 17.082031 51.652344 L 17.023438 51.96875 L 16.851562 52.289062 L 16.558594 52.664062 L 16.5 52.804688 L 16.820312 53.035156 L 17.023438 53.265625 L 17.316406 53.871094 L 17.375 54.21875 L 17.375 54.5625 L 17.316406 54.851562 L 17.054688 55.429688 L 16.792969 55.800781 L 16.558594 56.03125 L 16.238281 56.234375 L 15.683594 56.4375 L 15.507812 56.464844 L 14.957031 56.492188 L 11.488281 56.492188 L 11.460938 56.464844 L 11.429688 55.976562 L 11.429688 49.636719 L 11.488281 49.523438 Z M 13.46875 50.847656 L 12.972656 50.875 L 13.003906 52.171875 L 13.03125 52.203125 L 14.957031 52.203125 L 15.277344 52.085938 L 15.507812 51.882812 L 15.625 51.652344 L 15.625 51.367188 L 15.507812 51.136719 L 15.304688 50.960938 L 14.957031 50.875 Z M 13.003906 53.554688 L 13.003906 55.109375 L 13.03125 55.167969 L 14.984375 55.167969 L 15.277344 55.082031 L 15.539062 54.910156 L 15.65625 54.648438 L 15.683594 54.535156 L 15.683594 54.101562 L 15.566406 53.8125 L 15.421875 53.640625 L 15.277344 53.585938 L 15.042969 53.554688 Z M 13.003906 53.554688 "/>
<path style=" stroke:none;fill-rule:nonzero;fill:rgb(67.450982%,84.313726%,21.960784%);fill-opacity:1;" d="M 14.578125 24.488281 L 19.382812 24.515625 L 19.414062 24.546875 L 19.414062 29.933594 L 14.546875 29.933594 L 14.546875 29.097656 Z M 14.578125 24.488281 "/>
<path style=" stroke:none;fill-rule:nonzero;fill:rgb(20.784314%,18.039216%,12.156863%);fill-opacity:1;" d="M 20.8125 49.292969 L 21.539062 49.292969 L 22.09375 49.378906 L 22.503906 49.523438 L 22.96875 49.753906 L 23.257812 49.984375 L 23.492188 50.214844 L 23.726562 50.617188 L 23.871094 50.90625 L 23.929688 51.164062 L 23.957031 51.625 L 23.8125 51.742188 L 23.027344 51.742188 L 22.503906 51.769531 L 22.414062 51.652344 L 22.328125 51.308594 L 22.179688 51.046875 L 21.976562 50.847656 L 21.746094 50.730469 L 21.453125 50.675781 L 20.753906 50.675781 L 20.460938 50.730469 L 20.199219 50.90625 L 20.054688 51.078125 L 19.996094 51.222656 L 19.996094 51.597656 L 20.113281 51.769531 L 20.402344 51.941406 L 20.8125 52.085938 L 22.066406 52.375 L 22.9375 52.632812 L 23.40625 52.863281 L 23.726562 53.125 L 23.957031 53.441406 L 24.074219 53.699219 L 24.164062 54.132812 L 24.164062 54.792969 L 24.074219 55.167969 L 23.871094 55.570312 L 23.609375 55.890625 L 23.40625 56.089844 L 23.113281 56.292969 L 22.765625 56.464844 L 22.09375 56.636719 L 21.746094 56.695312 L 20.8125 56.695312 L 20.347656 56.609375 L 19.820312 56.464844 L 19.355469 56.234375 L 19.0625 56.003906 L 18.890625 55.859375 L 18.65625 55.542969 L 18.511719 55.253906 L 18.335938 54.765625 L 18.304688 54.476562 L 18.394531 54.332031 L 18.570312 54.304688 L 19.820312 54.304688 L 19.9375 54.535156 L 20.082031 54.910156 L 20.257812 55.109375 L 20.726562 55.3125 L 21.074219 55.398438 L 21.539062 55.398438 L 22.09375 55.253906 L 22.414062 55.082031 L 22.589844 54.851562 L 22.617188 54.734375 L 22.617188 54.476562 L 22.53125 54.246094 L 22.296875 54.074219 L 21.597656 53.84375 L 20.929688 53.671875 L 20.695312 53.613281 L 20.257812 53.554688 L 19.5 53.265625 L 19.152344 53.066406 L 18.859375 52.804688 L 18.65625 52.488281 L 18.539062 52.171875 L 18.511719 51.796875 L 18.511719 51.28125 L 18.570312 50.761719 L 18.742188 50.414062 L 18.976562 50.125 L 19.269531 49.839844 L 19.589844 49.636719 L 19.9375 49.464844 L 20.375 49.347656 Z M 20.8125 49.292969 "/>
<path style=" stroke:none;fill-rule:nonzero;fill:rgb(20.784314%,18.039216%,12.156863%);fill-opacity:1;" d="M 27.425781 49.464844 L 29.085938 49.492188 L 29.203125 49.609375 L 29.40625 50.097656 L 29.757812 51.105469 L 30.253906 52.488281 L 30.746094 53.902344 L 31.300781 55.429688 L 31.59375 56.234375 L 31.652344 56.378906 L 31.652344 56.492188 L 31.535156 56.523438 L 29.960938 56.550781 L 29.875 56.464844 L 29.726562 56.003906 L 29.464844 55.195312 L 29.464844 55.140625 L 27.019531 55.140625 L 26.929688 55.484375 L 26.757812 56.003906 L 26.640625 56.261719 L 26.550781 56.492188 L 24.890625 56.492188 L 24.863281 56.40625 L 25.035156 56.0625 L 25.386719 55.054688 L 25.792969 53.929688 L 26.085938 53.09375 L 26.40625 52.203125 L 26.8125 51.046875 L 27.191406 49.984375 L 27.367188 49.523438 Z M 28.269531 51.597656 L 28.125 51.882812 L 27.746094 52.980469 L 27.542969 53.699219 L 27.570312 53.726562 L 28.445312 53.757812 L 28.910156 53.757812 L 28.941406 53.671875 L 28.738281 52.921875 L 28.476562 52.085938 L 28.359375 51.652344 L 28.328125 51.597656 Z M 28.269531 51.597656 "/>
<path style=" stroke:none;fill-rule:nonzero;fill:rgb(21.568628%,18.431373%,12.156863%);fill-opacity:1;" d="M 2.484375 49.492188 L 3.710938 49.492188 L 4.03125 49.523438 L 4.058594 49.695312 L 4.058594 55.140625 L 7.378906 55.140625 L 7.46875 55.167969 L 7.496094 55.371094 L 7.496094 55.890625 L 7.46875 56.464844 L 7.351562 56.492188 L 5.222656 56.523438 L 2.457031 56.523438 L 2.425781 56.492188 L 2.398438 55.195312 L 2.398438 50.703125 L 2.425781 49.550781 Z M 2.484375 49.492188 "/>
<path style=" stroke:none;fill-rule:nonzero;fill:rgb(22.745098%,18.82353%,11.764706%);fill-opacity:1;" d="M 8.226562 49.261719 L 10.089844 49.261719 L 10.382812 49.292969 L 10.410156 49.378906 L 10.324219 49.523438 L 10.117188 49.609375 L 10.089844 54.015625 L 10.0625 55.945312 L 9.945312 56.117188 L 9.683594 56.40625 L 9.566406 56.464844 L 8.953125 56.464844 L 8.71875 56.378906 L 8.488281 56.148438 L 8.398438 56.003906 L 8.371094 55.890625 L 8.34375 55.371094 L 8.34375 49.664062 L 8.078125 49.550781 L 7.964844 49.464844 L 7.964844 49.320312 L 7.992188 49.292969 Z M 8.664062 49.578125 L 8.664062 51.855469 L 8.691406 51.882812 L 9.742188 51.882812 L 9.769531 50.847656 L 9.769531 49.664062 L 9.742188 49.609375 L 9.535156 49.578125 Z M 8.664062 49.578125 "/>
<path style=" stroke:none;fill-rule:nonzero;fill:rgb(6.666667%,16.862746%,50.588238%);fill-opacity:1;" d="M 14.519531 29.933594 L 14.984375 29.933594 L 15.480469 29.960938 L 15.480469 29.988281 L 14.867188 30.019531 L 14.75 30.277344 L 14.578125 30.652344 L 14.402344 31.34375 L 14.167969 31.921875 L 13.761719 32.667969 L 13.382812 33.304688 L 13.148438 33.675781 L 12.828125 34.28125 L 12.566406 34.714844 L 12.566406 34.914062 L 12.710938 35.089844 L 13.03125 35.175781 L 16.996094 35.203125 L 18.511719 35.234375 L 19.179688 35.234375 L 19.878906 35.261719 L 20.667969 35.261719 L 20.839844 35.175781 L 21.105469 35.089844 L 21.453125 34.914062 L 21.511719 34.828125 L 21.480469 34.6875 L 21.25 34.226562 L 20.988281 33.851562 L 20.753906 33.503906 L 20.519531 33.128906 L 20.257812 32.699219 L 20.054688 32.351562 L 19.734375 31.804688 L 19.558594 31.429688 L 19.269531 30.507812 L 19.179688 30.277344 L 19.179688 30.105469 L 19.121094 30.019531 L 18.949219 29.988281 L 18.949219 29.960938 L 19.179688 29.933594 L 19.441406 29.933594 L 19.558594 30.191406 L 19.617188 30.625 L 19.761719 31.171875 L 20.027344 31.890625 L 20.402344 32.582031 L 20.578125 32.84375 L 20.839844 33.273438 L 21.074219 33.648438 L 21.511719 34.339844 L 21.890625 34.859375 L 22.066406 35.117188 L 22.09375 35.320312 L 21.949219 35.347656 L 20.929688 35.375 L 12.769531 35.375 L 11.925781 35.347656 L 11.953125 35.203125 L 12.128906 34.859375 L 12.390625 34.425781 L 12.683594 33.90625 L 13.148438 33.128906 L 13.441406 32.667969 L 13.820312 32.007812 L 14.167969 31.285156 L 14.34375 30.765625 L 14.429688 30.363281 Z M 14.519531 29.933594 "/>
</g>
</svg>
